<svg viewBox="0 0 200 90" xmlns="http://www.w3.org/2000/svg" role="img" aria-label="Stock Desk">
  <defs>
    <linearGradient id="desk" x1="0" y1="0" x2="0" y2="1">
      <stop offset="0" stop-color="#141a26"/>
      <stop offset="1" stop-color="#0a0d13"/>
    </linearGradient>
  </defs>
  <rect width="200" height="90" fill="url(#desk)"/>

  <!-- 티커 테이프 -->
  <rect x="0" y="0" width="200" height="11" fill="#111621"/>
  <line x1="0" y1="11" x2="200" y2="11" stroke="#1e2634" stroke-width="0.6"/>
  <g font-family="monospace" font-size="5.2">
    <text x="6" y="7.6" fill="#f2707f">PER ▲2.41</text>
    <text x="46" y="7.6" fill="#6aa5f0">할인율 ▼1.08</text>
    <text x="92" y="7.6" fill="#f2707f">ROE ▲3.77</text>
    <text x="130" y="7.6" fill="#f2707f">현금흐름 ▲0.92</text>
    <text x="180" y="7.6" fill="#6aa5f0">해자</text>
  </g>

  <!-- 지수 -->
  <text x="8" y="26" font-family="monospace" font-size="5" fill="#6f7f94">MY.STUDY INDEX</text>
  <text x="8" y="38" font-family="monospace" font-size="14" font-weight="600" fill="#e9eef6">1,741.38</text>
  <text x="8" y="46" font-family="monospace" font-size="5.4" fill="#f2707f">▲ 741.38 (74.14%)</text>

  <!-- 격자 -->
  <g stroke="#1e2634" stroke-width="0.5">
    <line x1="86" y1="24" x2="192" y2="24"/>
    <line x1="86" y1="40" x2="192" y2="40"/>
    <line x1="86" y1="56" x2="192" y2="56"/>
    <line x1="86" y1="72" x2="192" y2="72"/>
  </g>

  <!-- 캔들 — 몸통은 끝낸 만큼, 점선 꼬리는 남은 만큼 -->
  <g>
    <rect x="92"  y="62" width="7" height="10" rx="1" fill="#e4485b"/>
    <rect x="105" y="53" width="7" height="9"  rx="1" fill="#e4485b"/>
    <rect x="118" y="45" width="7" height="8"  rx="1" fill="#e4485b"/>
    <rect x="131" y="36" width="7" height="9"  rx="1" fill="#e4485b"/>
    <rect x="144" y="31" width="7" height="5"  rx="1" fill="#e4485b"/>
    <line x1="147.5" y1="31" x2="147.5" y2="24" stroke="#6f7f94" stroke-width="0.7" stroke-dasharray="1.5 2"/>
    <line x1="160.5" y1="31" x2="160.5" y2="22" stroke="#6f7f94" stroke-width="0.7" stroke-dasharray="1.5 2"/>
    <line x1="157" y1="31" x2="164" y2="31" stroke="#33404f" stroke-width="1.4"/>
    <line x1="173.5" y1="31" x2="173.5" y2="20" stroke="#6f7f94" stroke-width="0.7" stroke-dasharray="1.5 2"/>
    <line x1="170" y1="31" x2="177" y2="31" stroke="#33404f" stroke-width="1.4"/>
    <line x1="186.5" y1="31" x2="186.5" y2="18" stroke="#6f7f94" stroke-width="0.7" stroke-dasharray="1.5 2"/>
    <line x1="183" y1="31" x2="190" y2="31" stroke="#33404f" stroke-width="1.4"/>
  </g>
  <g font-family="monospace" font-size="4.2" fill="#6f7f94">
    <text x="95.5" y="79" text-anchor="middle">PRE</text>
    <text x="108.5" y="79" text-anchor="middle">OPEN</text>
    <text x="121.5" y="79" text-anchor="middle">TAPE</text>
    <text x="134.5" y="79" text-anchor="middle">BOOK</text>
    <text x="147.5" y="79" text-anchor="middle">VALUE</text>
    <text x="160.5" y="79" text-anchor="middle">MACRO</text>
    <text x="173.5" y="79" text-anchor="middle">RISK</text>
    <text x="186.5" y="79" text-anchor="middle">PLAN</text>
  </g>
  <text x="8" y="79" font-family="monospace" font-size="5" fill="#e6c169">8 세션 · 60 항목</text>
</svg>
