<svg viewBox="0 0 200 90" xmlns="http://www.w3.org/2000/svg" role="img" aria-label="Cobblemon Journey">
  <rect width="200" height="90" fill="#2b1214"/>
  <!-- pokeball -->
  <circle cx="52" cy="45" r="22" fill="#f09595"/>
  <path d="M30 45 a22 22 0 0 0 44 0 z" fill="#faeeda"/>
  <rect x="30" y="43" width="44" height="4" fill="#2b1214"/>
  <circle cx="52" cy="45" r="7" fill="#2b1214"/>
  <circle cx="52" cy="45" r="4.5" fill="#faeeda"/>
  <!-- quest checklist -->
  <g>
    <rect x="96" y="20" width="11" height="11" rx="3" fill="#e24b4a"/>
    <path d="M98.5 25.5 l2.5 2.5 l4.5 -5" stroke="#fff" stroke-width="1.8" fill="none" stroke-linecap="round"/>
    <rect x="113" y="23" width="52" height="5" rx="2.5" fill="#c0dd97"/>
    <rect x="96" y="40" width="11" height="11" rx="3" fill="#e24b4a"/>
    <path d="M98.5 45.5 l2.5 2.5 l4.5 -5" stroke="#fff" stroke-width="1.8" fill="none" stroke-linecap="round"/>
    <rect x="113" y="43" width="40" height="5" rx="2.5" fill="#f5c4b3"/>
    <rect x="96" y="60" width="11" height="11" rx="3" fill="none" stroke="#93848a" stroke-width="1.5"/>
    <rect x="113" y="63" width="46" height="5" rx="2.5" fill="#57484d"/>
  </g>
  <text x="100" y="85" text-anchor="middle" font-family="monospace" font-size="8" fill="#f09595">gotta check 'em all</text>
</svg>
